<mxfile host="app.diagrams.net" modified="2020-06-26T14:11:20.428Z" agent="5.0 (Windows NT 10.0; Win64; x64) AppleWebKit/537.36 (KHTML, like Gecko) Chrome/83.0.4103.116 Safari/537.36" etag="CjJE8xjjSWsJzmLJcnvw" version="13.3.4" type="github">
  <diagram id="4Rw6qwMlkPoy8yVHMZix" name="Page-1">
    <mxGraphModel dx="1044" dy="656" grid="1" gridSize="10" guides="1" tooltips="1" connect="1" arrows="1" fold="1" page="1" pageScale="1" pageWidth="827" pageHeight="1169" math="0" shadow="0">
      <root>
        <mxCell id="0" />
        <mxCell id="1" parent="0" />
        <mxCell id="gogSmXasi4_Fke2GB7_I-1" style="edgeStyle=orthogonalEdgeStyle;rounded=0;orthogonalLoop=1;jettySize=auto;html=1;exitX=1;exitY=0.5;exitDx=0;exitDy=0;" parent="1" source="gogSmXasi4_Fke2GB7_I-2" target="gogSmXasi4_Fke2GB7_I-4" edge="1">
          <mxGeometry relative="1" as="geometry" />
        </mxCell>
        <mxCell id="gogSmXasi4_Fke2GB7_I-2" value="" style="rounded=1;whiteSpace=wrap;html=1;" parent="1" vertex="1">
          <mxGeometry x="40" y="40" width="160" height="360" as="geometry" />
        </mxCell>
        <mxCell id="gogSmXasi4_Fke2GB7_I-3" style="edgeStyle=orthogonalEdgeStyle;rounded=0;orthogonalLoop=1;jettySize=auto;html=1;entryX=0;entryY=0.5;entryDx=0;entryDy=0;" parent="1" source="gogSmXasi4_Fke2GB7_I-4" target="gogSmXasi4_Fke2GB7_I-13" edge="1">
          <mxGeometry relative="1" as="geometry" />
        </mxCell>
        <mxCell id="gogSmXasi4_Fke2GB7_I-4" value="" style="rounded=1;whiteSpace=wrap;html=1;" parent="1" vertex="1">
          <mxGeometry x="260" y="40" width="158.75" height="360" as="geometry" />
        </mxCell>
        <mxCell id="gogSmXasi4_Fke2GB7_I-6" value="Pad" style="rounded=1;whiteSpace=wrap;html=1;fillColor=#fff2cc;strokeColor=#d6b656;" parent="1" vertex="1">
          <mxGeometry x="68.75" y="160" width="102.5" height="50" as="geometry" />
        </mxCell>
        <mxCell id="gogSmXasi4_Fke2GB7_I-7" value="Verse" style="text;html=1;strokeColor=none;fillColor=none;align=center;verticalAlign=middle;whiteSpace=wrap;rounded=0;" parent="1" vertex="1">
          <mxGeometry x="100" y="50" width="40" height="20" as="geometry" />
        </mxCell>
        <mxCell id="gogSmXasi4_Fke2GB7_I-8" value="Pre Build Up" style="text;html=1;strokeColor=none;fillColor=none;align=center;verticalAlign=middle;whiteSpace=wrap;rounded=0;" parent="1" vertex="1">
          <mxGeometry x="291.25" y="45" width="95" height="30" as="geometry" />
        </mxCell>
        <mxCell id="gogSmXasi4_Fke2GB7_I-10" value="Pad &lt;br&gt;+ &lt;br&gt;Chord Pluck" style="rounded=1;whiteSpace=wrap;html=1;fillColor=#fff2cc;strokeColor=#d6b656;" parent="1" vertex="1">
          <mxGeometry x="293.75" y="160" width="95" height="50" as="geometry" />
        </mxCell>
        <mxCell id="gogSmXasi4_Fke2GB7_I-11" value="Build Up Drum" style="rounded=1;whiteSpace=wrap;html=1;fillColor=#a0522d;strokeColor=#6D1F00;fontColor=#ffffff;" parent="1" vertex="1">
          <mxGeometry x="291.25" y="310" width="95" height="50" as="geometry" />
        </mxCell>
        <mxCell id="gogSmXasi4_Fke2GB7_I-12" style="edgeStyle=orthogonalEdgeStyle;rounded=0;orthogonalLoop=1;jettySize=auto;html=1;" parent="1" source="gogSmXasi4_Fke2GB7_I-13" target="gogSmXasi4_Fke2GB7_I-25" edge="1">
          <mxGeometry relative="1" as="geometry" />
        </mxCell>
        <mxCell id="gogSmXasi4_Fke2GB7_I-13" value="" style="rounded=1;whiteSpace=wrap;html=1;" parent="1" vertex="1">
          <mxGeometry x="478.75" y="40" width="157.5" height="360" as="geometry" />
        </mxCell>
        <mxCell id="gogSmXasi4_Fke2GB7_I-14" value="Pre Chorus" style="text;html=1;strokeColor=none;fillColor=none;align=center;verticalAlign=middle;whiteSpace=wrap;rounded=0;" parent="1" vertex="1">
          <mxGeometry x="522" y="50" width="71" height="20" as="geometry" />
        </mxCell>
        <mxCell id="gogSmXasi4_Fke2GB7_I-15" value="&amp;nbsp;Melody" style="rounded=1;whiteSpace=wrap;html=1;fillColor=#f8cecc;strokeColor=#b85450;" parent="1" vertex="1">
          <mxGeometry x="510" y="80" width="95" height="60" as="geometry" />
        </mxCell>
        <mxCell id="gogSmXasi4_Fke2GB7_I-16" value="Pad &lt;br&gt;+ &lt;br&gt;Chord Pluck" style="rounded=1;whiteSpace=wrap;html=1;fillColor=#fff2cc;strokeColor=#d6b656;" parent="1" vertex="1">
          <mxGeometry x="510" y="160" width="95" height="50" as="geometry" />
        </mxCell>
        <mxCell id="gogSmXasi4_Fke2GB7_I-17" value="Rolling High BASS" style="rounded=1;whiteSpace=wrap;html=1;fillColor=#d5e8d4;strokeColor=#82b366;" parent="1" vertex="1">
          <mxGeometry x="510" y="235" width="95" height="50" as="geometry" />
        </mxCell>
        <mxCell id="gogSmXasi4_Fke2GB7_I-18" value="" style="rounded=1;whiteSpace=wrap;html=1;fillColor=#d5e8d4;strokeColor=#82b366;" parent="1" vertex="1">
          <mxGeometry x="291.25" y="235" width="95" height="50" as="geometry" />
        </mxCell>
        <mxCell id="gogSmXasi4_Fke2GB7_I-19" value="" style="rounded=1;whiteSpace=wrap;html=1;fillColor=#d5e8d4;strokeColor=#82b366;" parent="1" vertex="1">
          <mxGeometry x="72.5" y="235" width="95" height="50" as="geometry" />
        </mxCell>
        <mxCell id="gogSmXasi4_Fke2GB7_I-22" value="Clap" style="rounded=1;whiteSpace=wrap;html=1;fillColor=#a0522d;strokeColor=#6D1F00;fontColor=#ffffff;" parent="1" vertex="1">
          <mxGeometry x="510" y="310" width="95" height="50" as="geometry" />
        </mxCell>
        <mxCell id="gogSmXasi4_Fke2GB7_I-24" value="" style="rounded=1;whiteSpace=wrap;html=1;fillColor=#a0522d;strokeColor=#6D1F00;fontColor=#ffffff;" parent="1" vertex="1">
          <mxGeometry x="72.5" y="310" width="95" height="50" as="geometry" />
        </mxCell>
        <mxCell id="kLrQgNppZm8dj1sVTHU1-5" style="edgeStyle=orthogonalEdgeStyle;rounded=1;jumpSize=10;orthogonalLoop=1;jettySize=auto;html=1;entryX=0;entryY=0.5;entryDx=0;entryDy=0;strokeWidth=1;fontSize=12;" parent="1" source="gogSmXasi4_Fke2GB7_I-25" target="gogSmXasi4_Fke2GB7_I-31" edge="1">
          <mxGeometry relative="1" as="geometry" />
        </mxCell>
        <mxCell id="gogSmXasi4_Fke2GB7_I-25" value="" style="rounded=1;whiteSpace=wrap;html=1;" parent="1" vertex="1">
          <mxGeometry x="696.25" y="40" width="157.5" height="360" as="geometry" />
        </mxCell>
        <mxCell id="gogSmXasi4_Fke2GB7_I-26" value="Build Up" style="text;html=1;strokeColor=none;fillColor=none;align=center;verticalAlign=middle;whiteSpace=wrap;rounded=0;" parent="1" vertex="1">
          <mxGeometry x="726.25" y="50" width="100" height="20" as="geometry" />
        </mxCell>
        <mxCell id="gogSmXasi4_Fke2GB7_I-27" value="Pad &lt;br&gt;+ &lt;br&gt;Chord Pluck&lt;br&gt;+&lt;br&gt;Noise Chord Pluck" style="rounded=1;whiteSpace=wrap;html=1;fillColor=#fff2cc;strokeColor=#d6b656;" parent="1" vertex="1">
          <mxGeometry x="722.5" y="160" width="107.5" height="130" as="geometry" />
        </mxCell>
        <mxCell id="gogSmXasi4_Fke2GB7_I-28" value="Build Up Drum&lt;br&gt;+&lt;br&gt;Uplifter" style="rounded=1;whiteSpace=wrap;html=1;fillColor=#a0522d;strokeColor=#6D1F00;fontColor=#ffffff;" parent="1" vertex="1">
          <mxGeometry x="728.75" y="310" width="95" height="50" as="geometry" />
        </mxCell>
        <mxCell id="gogSmXasi4_Fke2GB7_I-31" value="" style="rounded=1;whiteSpace=wrap;html=1;" parent="1" vertex="1">
          <mxGeometry x="913.75" y="40" width="157.5" height="360" as="geometry" />
        </mxCell>
        <mxCell id="gogSmXasi4_Fke2GB7_I-32" value="Drop" style="text;html=1;strokeColor=none;fillColor=none;align=center;verticalAlign=middle;whiteSpace=wrap;rounded=0;" parent="1" vertex="1">
          <mxGeometry x="943.75" y="50" width="100" height="20" as="geometry" />
        </mxCell>
        <mxCell id="gogSmXasi4_Fke2GB7_I-33" value="Melody&lt;br&gt;Saw&lt;br&gt;Chord" style="rounded=1;whiteSpace=wrap;html=1;fillColor=#fff2cc;strokeColor=#d6b656;" parent="1" vertex="1">
          <mxGeometry x="940" y="160" width="107.5" height="130" as="geometry" />
        </mxCell>
        <mxCell id="gogSmXasi4_Fke2GB7_I-34" value="Key Hard Kick" style="rounded=1;whiteSpace=wrap;html=1;fillColor=#a0522d;strokeColor=#6D1F00;fontColor=#ffffff;" parent="1" vertex="1">
          <mxGeometry x="946.25" y="310" width="95" height="50" as="geometry" />
        </mxCell>
        <mxCell id="gogSmXasi4_Fke2GB7_I-36" value="&amp;nbsp;Melody" style="rounded=1;whiteSpace=wrap;html=1;fillColor=#f8cecc;strokeColor=#b85450;" parent="1" vertex="1">
          <mxGeometry x="946.25" y="80" width="95" height="60" as="geometry" />
        </mxCell>
        <mxCell id="kLrQgNppZm8dj1sVTHU1-1" value="Arp&lt;br&gt;+&lt;br&gt;Vocal" style="rounded=1;whiteSpace=wrap;html=1;fillColor=#f8cecc;strokeColor=#b85450;" parent="1" vertex="1">
          <mxGeometry x="72.5" y="80" width="95" height="60" as="geometry" />
        </mxCell>
        <mxCell id="kLrQgNppZm8dj1sVTHU1-2" value="Vocal&lt;br&gt;+&lt;br&gt;Incomplete Melody" style="rounded=1;whiteSpace=wrap;html=1;fillColor=#f8cecc;strokeColor=#b85450;" parent="1" vertex="1">
          <mxGeometry x="291.88" y="80" width="95" height="60" as="geometry" />
        </mxCell>
        <mxCell id="kLrQgNppZm8dj1sVTHU1-3" value="Vocal&lt;br&gt;+&lt;br&gt;Incomplete Melody" style="rounded=1;whiteSpace=wrap;html=1;fillColor=#f8cecc;strokeColor=#b85450;" parent="1" vertex="1">
          <mxGeometry x="727.5" y="80" width="95" height="60" as="geometry" />
        </mxCell>
      </root>
    </mxGraphModel>
  </diagram>
</mxfile>
